# xmcd
#
# Track frame offsets:
#	150
#	14756
#	30232
#	42225
#	57854
#	69863
#	82580
#	94586
#	108946
#	123836
#	135450
#	149361
#	162099
#	178069
#	193054
#	205535
#	219660
#	232732
#	246299
#	260596
#
# Disc length: 3636 seconds
#
# Revision: 1
# Processed by: cddbd v1.4PL0 Copyright (c) Steve Scherf et al.
# Submitted via: audiograbber 1.81.01
#
DISCID=040e3214
DTITLE=Jimmie Rodgers - Standing On The Corner - Disc 1
DYEAR=2002
DGENRE=Country
TTITLE0=Ninety Nine Year Blues
TTITLE1=Blue Yodel
TTITLE2=Nobody Knows But Me
TTITLE3=Mississippi Delta Blues
TTITLE4=Hobo Bill's Last Ride
TTITLE5=Jimmie's Texas Blues
TTITLE6=Blue Yodel No. 9
TTITLE7=I've Only Loved three Women
TTITLE8=Jimmie Rodgers Meets The Carter Family
TTITLE9=Home Call
TTITLE10=The Sailor's Plea
TTITLE11=Jimmie The Kid
TTITLE12=Memphis Yodel
TTITLE13=In The Jailhouse
TTITLE14=Waiting For A Train
TTITLE15=Old Love Letters
TTITLE16=Peach Picking Time In Georgia
TTITLE17=You And My Old Guitar
TTITLE18=Where There's A Tear In My Eye
TTITLE19=Never No Mo' Blues
EXTD=
EXTT0=
EXTT1=
EXTT2=
EXTT3=
EXTT4=
EXTT5=
EXTT6=
EXTT7=
EXTT8=
EXTT9=
EXTT10=
EXTT11=
EXTT12=
EXTT13=
EXTT14=
EXTT15=
EXTT16=
EXTT17=
EXTT18=
EXTT19=
PLAYORDER=
